<?xml version="1.0" standalone="no"?>
<!DOCTYPE svg PUBLIC "-//W3C//DTD SVG 20010904//EN"
 "http://www.w3.org/TR/2001/REC-SVG-20010904/DTD/svg10.dtd">
<svg version="1.0" xmlns="http://www.w3.org/2000/svg"
 width="1024.000000pt" height="1024.000000pt" viewBox="0 0 1024.000000 1024.000000"
 preserveAspectRatio="xMidYMid meet">
<metadata>
Created by potrace 1.14, written by Peter Selinger 2001-2017
</metadata>
<g transform="translate(0.000000,1024.000000) scale(0.100000,-0.100000)"
fill="#000000" stroke="none">
<path d="M6035 10234 c-343 -34 -545 -77 -810 -171 -142 -50 -320 -132 -441
-203 -57 -33 -342 -212 -632 -397 -290 -185 -574 -366 -632 -403 -625 -397
-1291 -823 -1355 -868 -514 -356 -903 -908 -1070 -1518 -179 -653 -107 -1414
190 -2003 19 -39 35 -74 35 -79 0 -5 -23 -47 -51 -93 -201 -332 -332 -717
-380 -1114 -18 -141 -18 -519 -1 -655 84 -672 369 -1261 849 -1753 242 -249
491 -436 793 -595 827 -437 1817 -489 2640 -137 184 78 367 185 910 532 311
198 853 543 1205 768 352 224 690 440 750 480 596 395 1014 1016 1160 1723 46
220 58 364 52 637 -7 344 -47 578 -149 874 -46 134 -140 354 -159 376 -15 16
-10 30 42 116 202 333 329 709 381 1119 17 134 17 513 0 650 -85 685 -384
1291 -882 1790 -495 494 -1151 815 -1854 906 -115 15 -505 27 -591 18z m420
-1164 c769 -71 1415 -579 1644 -1293 64 -201 75 -279 75 -532 0 -258 -11 -335
-82 -553 l-37 -112 -119 85 c-296 213 -596 364 -921 464 l-101 31 4 93 c5 117
-9 187 -58 285 -88 175 -266 293 -468 309 -100 7 -220 -21 -312 -75 -36 -21
-407 -257 -825 -524 -418 -266 -949 -605 -1180 -752 -238 -152 -441 -288 -468
-314 -106 -104 -149 -207 -150 -357 0 -119 22 -195 85 -293 109 -168 319 -274
513 -258 141 11 168 25 665 342 557 356 607 386 734 442 360 158 802 190 1200
87 315 -82 596 -239 828 -463 301 -290 486 -634 555 -1028 23 -136 23 -423 0
-558 -67 -383 -252 -718 -540 -973 -88 -79 -181 -141 -832 -555 -280 -179
-773 -493 -1095 -698 -731 -466 -719 -459 -820 -510 -314 -158 -709 -219
-1075 -165 -779 113 -1410 703 -1575 1470 -15 70 -23 152 -27 276 -8 254 11
390 89 629 17 52 32 96 33 98 1 2 57 -37 123 -85 273 -199 567 -348 895 -454
l123 -39 -4 -93 c-5 -113 8 -182 52 -274 41 -86 137 -191 217 -238 166 -97
373 -108 529 -27 30 16 334 206 675 424 341 217 883 562 1205 767 322 205 605
392 628 414 60 58 98 115 129 194 35 92 37 236 4 333 -47 137 -149 256 -277
322 -99 51 -154 63 -274 62 -86 -1 -117 -5 -171 -25 -40 -16 -242 -138 -530
-321 -661 -421 -663 -422 -874 -493 -261 -87 -613 -113 -890 -64 -399 70 -762
262 -1040 550 -357 371 -543 840 -522 1319 19 436 186 822 482 1115 116 115
191 169 555 401 179 114 636 405 1015 647 380 242 789 503 910 581 348 223
536 308 787 357 185 36 341 45 513 29z"/>
</g>
</svg>
